<?xml version="1.0" encoding="utf-8"?> <!-- Generator: IcoMoon.io --> <!DOCTYPE svg PUBLIC "-//W3C//DTD SVG 1.1//EN" "http://www.w3.org/Graphics/SVG/1.1/DTD/svg11.dtd"> <svg version="1.1" id="Layer_1" xmlns="http://www.w3.org/2000/svg" xmlns:xlink="http://www.w3.org/1999/xlink" x="0px" y="0px" width="48px" height="48px" viewBox="0 0 48 48" enable-background="new 0 0 16 16" xml:space="preserve" fill="#000000"> <path d="m 24,33 c 1.659,0 3,1.344 3,3 0,1.659 -1.341,3 -3,3 -1.659,0 -3,-1.341 -3,-3 0,-1.656 1.341,-3 3,-3 z M 21.057806,27.596655 18.115613,16.195009 C 17.762899,14.45905 18.229196,12.574732 19.350894,11.203197 20.472594,9.8316648 22.227547,9 23.999999,9 c 1.772453,0 3.527405,0.8316648 4.649106,2.203197 1.1217,1.371535 1.587995,3.255853 1.235283,4.991812 L 26.942193,27.596655 C 26.66927,28.9399 25.371483,30 23.999999,30 22.628516,30 21.330728,28.9399 21.057806,27.596655 z M 24,6 C 14.061,6 6,14.061 6,24 6,33.939 14.061,42 24,42 33.939,42 42,33.939 42,24 42,14.061 33.939,6 24,6 z m 0,42 C 10.746,48 0,37.254 0,24 0,10.746 10.746,0 24,0 37.254,0 48,10.746 48,24 48,37.254 37.254,48 24,48 z" ></path></svg>